<svg data-v-70b83f88="" version="1.0" xmlns="http://www.w3.org/2000/svg" xmlns:xlink="http://www.w3.org/1999/xlink" width="100%" height="100%" viewBox="0 0 340.000000 250.000000" preserveAspectRatio="xMidYMid meet" color-interpolation-filters="sRGB" style="margin: auto;"> <rect data-v-70b83f88="" x="0" y="0" width="100%" height="100%" fill="transparent" fill-opacity="1" class="background"></rect> <rect data-v-70b83f88="" x="0" y="0" width="100%" height="100%" fill="url(#watermark)" fill-opacity="1" class="watermarklayer"></rect> <g data-v-70b83f88="" class="iconmbgsvg" transform="translate(69.04000091552734,67.85714340209961)"><g fill="#fefcfb" hollow-target="textRect"><g transform="translate(38.459999084472656,0)" mask="url(#84707e2e-ae1b-480f-9781-242326f4c41b)"><g><rect fill="#fefcfb" fill-opacity="0" stroke-width="2" x="0" y="0" width="125" height="114.28571428571429" class="image-rect"></rect> <svg filter="url(#colors1860656033)" x="0" y="0" width="125" height="114.28571428571429" filtersec="colorsf4470155345" class="image-svg-svg primary" style="overflow: visible;"><svg fill="#fe5f55" xmlns="http://www.w3.org/2000/svg" xmlns:xlink="http://www.w3.org/1999/xlink" version="1.1" x="0px" y="0px" viewBox="11.899999618530273 13.199999809265137 80.5 73.5999984741211" style="enable-background:new 0 0 100 100;" xml:space="preserve"><g><rect x="11.9" y="39.5" width="8" height="20.9"></rect></g><g><rect x="30" y="25.6" width="8" height="48.9"></rect></g><g><rect x="48.1" y="13.2" width="8" height="73.6"></rect></g><g><rect x="84.4" y="39.5" width="8" height="20.9"></rect></g><g><rect x="66.3" y="25.6" width="8" height="48.9"></rect></g></svg></svg> <defs><filter id="colors1860656033"><feColorMatrix type="matrix" values="0 0 0 0 0.9921875  0 0 0 0 0.984375  0 0 0 0 0.98046875  0 0 0 1 0" class="icon-fecolormatrix"></feColorMatrix></filter> <filter id="colorsf4470155345"><feColorMatrix type="matrix" values="0 0 0 0 0.99609375  0 0 0 0 0.99609375  0 0 0 0 0.99609375  0 0 0 1 0" class="icon-fecolormatrix"></feColorMatrix></filter> <filter id="colorsb4759475160"><feColorMatrix type="matrix" values="0 0 0 0 0  0 0 0 0 0  0 0 0 0 0  0 0 0 1 0" class="icon-fecolormatrix"></feColorMatrix></filter></defs></g></g> <g transform="translate(0,40.262855529785156)"><g data-gra="path-name" fill-rule="" class="tp-name"><g transform="scale(1)"><g><path d="M14.44-26.84L14.44-26.84Q18.44-26.84 21.48-25.48L21.48-25.48Q25.04-23.84 26.48-20L26.48-20Q27.6-17 27.6-12.96L27.6-12.96Q27.6-8.88 26.24-5.88L26.24-5.88Q24.52-2.32 20.96-0.88L20.96-0.88Q18.32 0.16 14.88 0.16L14.88 0.16Q10.36 0.16 7.04-1.52L7.04-1.52Q4.24-2.92 2.76-5.92 1.28-8.92 1.28-13.2L1.28-13.2Q1.28-20.84 5.08-24.08L5.08-24.08Q8.28-26.8 14.44-26.84ZM14.48-22.36L14.48-22.36Q10.56-22.36 8.88-19.8L8.88-19.8Q7.52-17.8 7.52-13.36L7.52-13.36Q7.52-8.68 9.2-6.48L9.2-6.48Q10.88-4.32 14.52-4.32L14.52-4.32Q18.04-4.32 19.7-6.52 21.36-8.72 21.36-13.32L21.36-13.32Q21.36-17.52 20-19.72L20-19.72Q18.44-22.32 14.48-22.36ZM44.88 0L31.48 0 31.48-4.76 43.68-4.76Q46.6-4.76 47.56-5.32L47.56-5.32Q48.96-6.16 48.96-7.84L48.96-7.84Q48.96-9.8 47.32-10.68L47.32-10.68Q46.4-11.2 44.36-11.2L44.36-11.2 39.4-11.2Q34.88-11.2 32.88-12.84L32.88-12.84Q31.64-13.88 30.94-15.44 30.24-17 30.24-18.8L30.24-18.8Q30.24-21.6 31.88-23.92L31.88-23.92Q33.48-26.16 37-26.56L37-26.56Q38.2-26.68 40.56-26.68L40.56-26.68 53.8-26.68 53.8-21.92 41.84-21.92Q39.16-21.88 38.28-21.68L38.28-21.68Q36.48-21.24 36.48-18.96L36.48-18.96Q36.48-17.04 38-16.4L38-16.4Q39-15.92 41.36-15.92L41.36-15.92 45.64-15.92Q48.92-15.92 50.52-15.36L50.52-15.36Q53.36-14.4 54.44-12L54.44-12Q55.28-10.08 55.28-7.88L55.28-7.88Q55.28-5.44 54.16-3.52L54.16-3.52Q52.6-0.8 49.48-0.24L49.48-0.24Q47.96 0 44.88 0L44.88 0ZM65.32 0L65.32-21.92 56.84-21.92 56.84-26.68 79.84-26.68 79.84-21.92 71-21.92 71 0 65.32 0ZM97.56-9.32L88.44-9.32 88.44 0 82.76 0 82.76-26.68 96.08-26.68Q99.72-26.68 101.28-26.16L101.28-26.16Q103.92-25.28 105.44-22.52L105.44-22.52Q106.56-20.44 106.56-18L106.56-18Q106.56-15.96 105.82-14.14 105.08-12.32 103.76-11.16L103.76-11.16Q102.56-10.12 101.22-9.72 99.88-9.32 97.56-9.32L97.56-9.32ZM88.44-21.92L88.44-14.08 96.16-14.08Q98.24-14.08 99.08-14.72L99.08-14.72Q100.32-15.72 100.32-18.2L100.32-18.2Q100.32-20.88 98.44-21.64L98.44-21.64Q97.76-21.92 96.28-21.92L96.28-21.92 88.44-21.92ZM115.4-26.68L115.4 0 110.04 0 110.04-26.68 115.4-26.68ZM127.56-11.84L134.12-11.84Q134.12-13.88 133.3-14.6 132.48-15.32 130.04-15.32L130.04-15.32 121-15.32 121-19.48 130.04-19.48Q132.48-19.48 133.4-19.38 134.32-19.28 135.28-19L135.28-19Q139.72-17.32 139.48-10.96L139.48-10.96 139.48 0 128.2 0Q125.16 0 124-0.18 122.84-0.36 121.96-0.92L121.96-0.92Q119.6-2.52 119.6-5.76L119.6-5.76Q119.6-7.72 120.54-9.26 121.48-10.8 123.04-11.36L123.04-11.36Q124.4-11.84 127.56-11.84L127.56-11.84ZM134.12-4.16L134.12-7.68 127.96-7.68 127.04-7.68Q126.12-7.68 125.58-7.2 125.04-6.72 125.04-5.88L125.04-5.88Q125.04-4.96 125.7-4.56 126.36-4.16 127.96-4.16L127.96-4.16 134.12-4.16ZM152.84-4.16L157.24-4.16 157.24-19.48 162.6-19.48 162.6-0.4Q162.6 3.4 160.6 5.16 158.6 6.92 154.24 6.92L154.24 6.92 144.68 6.92 144.68 2.76 154.24 2.76Q155.96 2.76 156.48 2.4L156.48 2.4Q156.88 2.16 157 1.78 157.12 1.4 157.24 0L157.24 0 152.48 0Q144.24 0.2 144.68-8.6L144.68-8.6 144.68-19.48 150.04-19.48 150.04-9.12Q150.04-6.08 150.58-5.12 151.12-4.16 152.84-4.16L152.84-4.16ZM172.04-11.84L183.32-11.84 183.32-7.68 172.04-7.68Q172.2-5.76 173.28-4.96 174.36-4.16 176.8-4.16L176.8-4.16 183.32-4.16 183.32 0 176.2 0Q173.88 0 172.42-0.42 170.96-0.84 169.68-1.8L169.68-1.8Q166.12-4.56 166.12-10L166.12-10Q166.12-13.52 168-16.16L168-16.16Q169.28-17.96 171.08-18.72 172.88-19.48 175.8-19.48L175.8-19.48 183.32-19.48 183.32-15.32 176.2-15.32Q174-15.32 173.12-14.58 172.24-13.84 172.04-11.84L172.04-11.84ZM187.68 0L187.68-19.48 195.6-19.48Q198.04-19.48 199.38-19.14 200.72-18.8 201.6-18L201.6-18Q202.48-17.2 202.84-16 203.2-14.8 203.2-12.56L203.2-12.56 203.2-10.68 198.04-10.68 198.04-11.72Q198.04-13.8 197.32-14.56 196.6-15.32 194.56-15.32L194.56-15.32 193.04-15.32 193.04 0 187.68 0Z" transform="translate(-1.2799999713897705, 26.84000015258789)"></path></g> <!----> <!----> <!----> <!----> <!----> <!----> <!----></g></g> <!----></g></g></g><mask id="84707e2e-ae1b-480f-9781-242326f4c41b"><g fill="white"><g><rect fill-opacity="1" stroke-width="2" x="0" y="0" width="125" height="114.28571428571429" class="image-rect"></rect> <svg x="0" y="0" width="125" height="114.28571428571429" class="image-svg-svg primary" style="overflow: visible;" filter="url(#colorsf4470155345)"><svg xmlns="http://www.w3.org/2000/svg" xmlns:xlink="http://www.w3.org/1999/xlink" version="1.1" x="0px" y="0px" viewBox="11.899999618530273 13.199999809265137 80.5 73.5999984741211" style="enable-background:new 0 0 100 100;" xml:space="preserve"><g><rect x="11.9" y="39.5" width="8" height="20.9"></rect></g><g><rect x="30" y="25.6" width="8" height="48.9"></rect></g><g><rect x="48.1" y="13.2" width="8" height="73.6"></rect></g><g><rect x="84.4" y="39.5" width="8" height="20.9"></rect></g><g><rect x="66.3" y="25.6" width="8" height="48.9"></rect></g></svg></svg> <defs>  </defs></g></g> <g transform="translate(-38.459999084472656,40.262855529785156)"><rect fill="black" fill-opacity="1" x="-3.5" y="-3.5" width="208.9199981689453" height="40.76000213623047"></rect><rect fill="black" fill-opacity="1" x="-3.5" y="-3.5"></rect></g><g transform="translate(-38.459999084472656,40.262855529785156)" fill="black"><g data-gra="path-name" fill-rule="" class="tp-name"><g transform="scale(1)"><g><path d="M14.44-26.84L14.44-26.84Q18.44-26.84 21.48-25.48L21.48-25.48Q25.04-23.84 26.48-20L26.48-20Q27.6-17 27.6-12.96L27.6-12.96Q27.6-8.88 26.24-5.88L26.24-5.88Q24.52-2.32 20.96-0.88L20.96-0.88Q18.32 0.16 14.88 0.16L14.88 0.16Q10.36 0.16 7.04-1.52L7.04-1.52Q4.24-2.92 2.76-5.92 1.28-8.92 1.28-13.2L1.28-13.2Q1.28-20.84 5.08-24.08L5.08-24.08Q8.28-26.8 14.44-26.84ZM14.48-22.36L14.48-22.36Q10.56-22.36 8.88-19.8L8.88-19.8Q7.52-17.8 7.52-13.36L7.52-13.36Q7.52-8.68 9.2-6.48L9.2-6.48Q10.88-4.32 14.52-4.32L14.52-4.32Q18.04-4.32 19.7-6.52 21.36-8.72 21.36-13.32L21.36-13.32Q21.36-17.52 20-19.72L20-19.72Q18.44-22.32 14.48-22.36ZM44.88 0L31.48 0 31.48-4.76 43.68-4.76Q46.6-4.76 47.56-5.32L47.56-5.32Q48.96-6.16 48.96-7.84L48.96-7.84Q48.96-9.8 47.32-10.68L47.32-10.68Q46.4-11.2 44.36-11.2L44.36-11.2 39.4-11.2Q34.88-11.2 32.88-12.84L32.88-12.84Q31.64-13.88 30.94-15.44 30.24-17 30.24-18.8L30.24-18.8Q30.24-21.6 31.88-23.92L31.88-23.92Q33.48-26.16 37-26.56L37-26.56Q38.2-26.68 40.56-26.68L40.56-26.68 53.8-26.68 53.8-21.92 41.84-21.92Q39.16-21.88 38.28-21.68L38.28-21.68Q36.48-21.24 36.48-18.96L36.48-18.96Q36.48-17.04 38-16.4L38-16.4Q39-15.92 41.36-15.92L41.36-15.92 45.64-15.92Q48.92-15.92 50.52-15.36L50.52-15.36Q53.36-14.4 54.44-12L54.44-12Q55.28-10.08 55.28-7.88L55.28-7.88Q55.28-5.44 54.16-3.52L54.16-3.52Q52.6-0.8 49.48-0.24L49.48-0.24Q47.96 0 44.88 0L44.88 0ZM65.32 0L65.32-21.92 56.84-21.92 56.84-26.68 79.84-26.68 79.84-21.92 71-21.92 71 0 65.32 0ZM97.56-9.32L88.44-9.32 88.44 0 82.76 0 82.76-26.68 96.08-26.68Q99.72-26.68 101.28-26.16L101.28-26.16Q103.92-25.28 105.44-22.52L105.44-22.52Q106.56-20.44 106.56-18L106.56-18Q106.56-15.96 105.82-14.14 105.08-12.32 103.76-11.16L103.76-11.16Q102.56-10.12 101.22-9.72 99.88-9.32 97.56-9.32L97.56-9.32ZM88.44-21.92L88.44-14.08 96.16-14.08Q98.24-14.08 99.08-14.72L99.08-14.72Q100.32-15.72 100.32-18.2L100.32-18.2Q100.32-20.88 98.44-21.64L98.44-21.64Q97.76-21.92 96.28-21.92L96.28-21.92 88.44-21.92ZM115.4-26.68L115.4 0 110.04 0 110.04-26.68 115.4-26.68ZM127.56-11.84L134.12-11.84Q134.12-13.88 133.3-14.6 132.48-15.32 130.04-15.32L130.04-15.32 121-15.32 121-19.48 130.04-19.48Q132.48-19.48 133.4-19.38 134.32-19.28 135.28-19L135.28-19Q139.72-17.32 139.48-10.96L139.48-10.96 139.48 0 128.2 0Q125.16 0 124-0.18 122.84-0.36 121.96-0.92L121.96-0.92Q119.6-2.52 119.6-5.76L119.6-5.76Q119.6-7.72 120.54-9.26 121.48-10.8 123.04-11.36L123.04-11.36Q124.4-11.84 127.56-11.84L127.56-11.84ZM134.12-4.16L134.12-7.68 127.96-7.68 127.04-7.68Q126.12-7.68 125.58-7.2 125.04-6.72 125.04-5.88L125.04-5.88Q125.04-4.96 125.7-4.56 126.36-4.16 127.96-4.16L127.96-4.16 134.12-4.16ZM152.84-4.16L157.24-4.16 157.24-19.48 162.6-19.48 162.6-0.4Q162.6 3.4 160.6 5.16 158.6 6.92 154.24 6.92L154.24 6.92 144.68 6.92 144.68 2.76 154.24 2.76Q155.96 2.76 156.48 2.4L156.48 2.4Q156.88 2.16 157 1.78 157.12 1.4 157.24 0L157.24 0 152.48 0Q144.24 0.2 144.68-8.6L144.68-8.6 144.68-19.48 150.04-19.48 150.04-9.12Q150.04-6.08 150.58-5.12 151.12-4.16 152.84-4.16L152.84-4.16ZM172.04-11.84L183.32-11.84 183.32-7.68 172.04-7.68Q172.2-5.76 173.28-4.96 174.36-4.16 176.8-4.16L176.8-4.16 183.32-4.16 183.32 0 176.2 0Q173.88 0 172.42-0.42 170.96-0.84 169.68-1.8L169.68-1.8Q166.12-4.56 166.12-10L166.12-10Q166.12-13.52 168-16.16L168-16.16Q169.28-17.96 171.08-18.72 172.88-19.48 175.8-19.48L175.8-19.48 183.32-19.48 183.32-15.32 176.2-15.32Q174-15.32 173.12-14.58 172.24-13.84 172.04-11.84L172.04-11.84ZM187.68 0L187.68-19.48 195.6-19.48Q198.04-19.48 199.38-19.14 200.72-18.8 201.6-18L201.6-18Q202.48-17.2 202.84-16 203.2-14.8 203.2-12.56L203.2-12.56 203.2-10.68 198.04-10.68 198.04-11.72Q198.04-13.8 197.32-14.56 196.6-15.32 194.56-15.32L194.56-15.32 193.04-15.32 193.04 0 187.68 0Z" transform="translate(-1.2799999713897705, 26.84000015258789)"></path></g>       </g></g> </g></mask><defs v-gra="od"></defs></svg>